<svg xmlns="http://www.w3.org/2000/svg" viewBox="0 0 512 512" role="img" aria-label="KaraPlay">
  <defs>
    <linearGradient id="bg" x1="0%" y1="0%" x2="100%" y2="100%">
      <stop offset="0%" stop-color="#18181b"/>
      <stop offset="100%" stop-color="#09090b"/>
    </linearGradient>
    <linearGradient id="mic" x1="0%" y1="0%" x2="0%" y2="100%">
      <stop offset="0%" stop-color="#e879f9"/>
      <stop offset="100%" stop-color="#c026d3"/>
    </linearGradient>
  </defs>
  <rect width="512" height="512" rx="112" fill="url(#bg)"/>
  <circle cx="256" cy="256" r="168" fill="rgba(192,38,211,0.12)"/>
  <g fill="url(#mic)" transform="translate(256 248) scale(7.5) translate(-12 -12)">
    <path d="M12 1a3 3 0 0 0-3 3v8a3 3 0 0 0 6 0V4a3 3 0 0 0-3-3z"/>
    <path d="M19 10v2a7 7 0 0 1-14 0v-2H3v2a9 9 0 0 0 8 8.94V23h2v-2.06A9 9 0 0 0 21 12v-2h-2z"/>
  </g>
</svg>
